Music_Route206:
	dbw $C0, Music_Route206_Ch1
	dbw $01, Music_Route206_Ch2
	dbw $02, Music_Route206_Ch3
	dbw $03, Music_Route206_Ch4

Music_Route206_Ch1:
	tempo 160
	volume $77
	tone $0001
	vibrato $10, $15
	stereopanning $f0
	notetype $4, 161
	dutycycle 0
	note __, 2
	octave 4
	note B_, 4
	note A_, 4
	note G#, 4
	note E_, 4
	octave 3
	note B_, 4
	note A_, 4
	note G#, 4
	note E_, 4
	octave 2
	note B_, 2
	intensity 166
	dutycycle 3
	octave 3
	note C#, 16
	octave 2
	note A_, 4
	octave 3
	note C#, 4
	note D#, 16
	octave 2
	note B_, 4
	octave 3
	note D#, 4
	note E_, 16
	note C_, 4
	note E_, 4
	note F#, 16
	note D_, 4
	note F#, 4
	note G#, 4
	octave 2
	note B_, 4
	octave 3
	note E_, 4
	octave 2
	note B_, 12
	octave 3
	note G_, 12
	octave 2
	note B_, 4
	octave 3
	note E_, 4
	note G_, 4
	note E_, 14
	intensity 161
	dutycycle 0
	octave 4
	note B_, 4
	note A_, 4
	note G#, 4
	note E_, 4
	octave 3
	note B_, 4
	note A_, 4
	note G#, 4
	note E_, 4
	octave 2
	note B_, 2
Music_Route206_Loop1:
	note __, 12
	intensity 164
	dutycycle 3
	octave 4
	note D#, 12
	note F#, 12
	octave 5
	note C#, 12
	octave 4
	note B_, 12
	octave 5
	note E_, 12
	intensity 166
	octave 4
	note B_, 16
	note __, 16
	note __, 4
	intensity 164
	note E_, 12
	note A_, 12
	octave 5
	note C#, 12
	octave 4
	note B_, 12
	octave 5
	note E_, 12
	intensity 166
	octave 4
	note B_, 16
	note __, 16
	note __, 4
	intensity 164
	note D#, 4
	note F#, 4
	note A_, 4
	octave 5
	note C_, 8
	note C_, 8
	octave 4
	note G#, 16
	note __, 4
	note C#, 4
	note E_, 4
	note G_, 4
	note A#, 8
	octave 5
	note C#, 8
	octave 4
	note F#, 8
	octave 2
	note E_, 4
	note A_, 4
	octave 3
	note C#, 4
	octave 2
	note A_, 4
	octave 3
	note C#, 4
	note E_, 8
	octave 4
	note A_, 8
	note B_, 8
	octave 5
	note F#, 4
	intensity 161
	octave 2
	note F#, 2
	note B_, 2
	octave 3
	note C#, 2
	note E_, 2
	note C#, 2
	octave 2
	note B_, 2
	note F#, 2
	note B_, 2
	octave 3
	note C#, 2
	note F#, 2
	note B_, 2
	octave 4
	note C#, 2
	octave 3
	note B_, 2
	note F#, 2
	note B_, 2
	octave 4
	note C#, 2
	note E_, 2
	note F#, 2
	octave 3
	note B_, 2
	octave 4
	note E_, 2
	note F#, 2
	note A_, 2
	note B_, 2
	octave 5
	note D#, 2
	dutycycle 2
	octave 3
	note B_, 2
	note G_, 2
	note E_, 2
	note C_, 2
	octave 2
	note G_, 2
	octave 3
	note C_, 2
	note E_, 2
	note C_, 2
	octave 2
	note G_, 2
	note E_, 2
	note G_, 2
	octave 3
	note C_, 2
	note D_, 2
	note F#, 2
	note A_, 2
	octave 4
	note D_, 2
	note F#, 2
	note A_, 2
	octave 3
	note A_, 2
	octave 4
	note D_, 2
	note F#, 2
	note A_, 2
	octave 5
	note D_, 2
	note F#, 2
	note G#, 2
	note E_, 2
	octave 4
	note B_, 2
	note A_, 2
	note G#, 2
	note E_, 2
	octave 3
	note B_, 2
	note A_, 2
	note G#, 2
	note E_, 2
	octave 2
	note B_, 2
	note A_, 2
	note G#, 2
	note A_, 2
	note B_, 2
	octave 3
	note E_, 2
	octave 2
	note B_, 2
	octave 3
	note E_, 2
	note F#, 2
	note G#, 2
	note A_, 2
	note B_, 2
	octave 4
	note E_, 2
	note F#, 2
	note A_, 2
	note E_, 2
	note C#, 2
	octave 3
	note A_, 2
	note E_, 2
	note A_, 2
	octave 4
	note C#, 2
	octave 3
	note A_, 2
	note E_, 2
	note C#, 2
	note E_, 2
	note A_, 2
	note F#, 2
	note A_, 2
	note B_, 2
	octave 4
	note D#, 2
	note F#, 2
	note B_, 2
	octave 3
	note B_, 2
	octave 4
	note D#, 2
	note F#, 2
	note B_, 2
	octave 5
	note D#, 2
	note F#, 2
	note A_, 2
	note G#, 2
	note E_, 2
	octave 4
	note B_, 2
	note A_, 2
	note G#, 2
	note A_, 2
	note G#, 2
	note E_, 2
	octave 3
	note B_, 2
	note A_, 2
	note G#, 2
	note A_, 2
	note G#, 2
	note E_, 2
	octave 2
	note B_, 2
	note A_, 2
	note G#, 2
	note E_, 2
	note G#, 2
	note A_, 2
	note B_, 2
	octave 3
	note E_, 2
	note G#, 2
	intensity 166
	dutycycle 3
	octave 2
	note A_, 12
	note B_, 12
	octave 3
	note E_, 12
	octave 2
	note B_, 12
	note G_, 12
	note A_, 12
	note B_, 12
	octave 3
	note C_, 12
	octave 2
	note B_, 16
	note __, 16
	note __, 16
	note __, 14
	intensity 161
	dutycycle 0
	octave 4
	note B_, 4
	note A_, 4
	note G#, 4
	note E_, 4
	octave 3
	note B_, 4
	note A_, 4
	note G#, 4
	note E_, 4
	octave 2
	note B_, 2
	loopchannel 0, Music_Route206_Loop1
Music_Route206_Ch2:
	notetype $4, 177
	vibrato $12, $36
	stereopanning $f
	dutycycle 2
	octave 4
	note B_, 4
	note A_, 4
	note G#, 4
	note E_, 4
	octave 3
	note B_, 4
	note A_, 4
	note G#, 4
	note E_, 4
	octave 2
	note B_, 4
	dutycycle 3
	octave 4
	note E_, 1
	note F#, 1
	note E_, 1
	note F#, 1
	note E_, 1
	note F#, 1
	note E_, 1
	note F#, 1
	intensity 180
	note E_, 4
	octave 3
	note E_, 4
	note B_, 4
	octave 4
	note E_, 4
	note F#, 8
	octave 3
	note B_, 8
	octave 4
	note F#, 8
	intensity 177
	note G_, 1
	note A_, 1
	note G_, 1
	note A_, 1
	note G_, 1
	note A_, 1
	note G_, 1
	note A_, 1
	intensity 180
	note G_, 4
	octave 3
	note G_, 4
	octave 4
	note C_, 4
	note G_, 4
	note A_, 8
	note D_, 8
	note A_, 8
	note B_, 4
	note B_, 4
	octave 5
	note E_, 1
	note F#, 1
	note E_, 6
	octave 4
	note E_, 8
	note G_, 4
	note G_, 4
	octave 5
	note E_, 1
	note F#, 1
	note E_, 6
	octave 3
	note B_, 4
	octave 4
	note G_, 4
	note G#, 12
	intensity 177
	dutycycle 2
	note B_, 4
	note A_, 4
	note G#, 4
	note E_, 4
	octave 3
	note B_, 4
	note A_, 4
	note G#, 4
	note E_, 4
	octave 2
	note B_, 4
Music_Route206_Loop2:
	intensity 184
	dutycycle 3
	octave 3
	note B_, 16
	note D#, 4
	octave 4
	note C#, 4
	octave 3
	note B_, 8
	octave 4
	note C#, 8
	note D#, 8
	note F#, 16
	note E_, 4
	octave 3
	note B_, 4
	note G#, 16
	note G#, 8
	octave 4
	note C#, 16
	octave 3
	note A_, 4
	octave 4
	note E_, 4
	note D#, 8
	note E_, 8
	note F#, 8
	note A_, 16
	note G#, 4
	note E_, 4
	octave 3
	note B_, 16
	note B_, 8
	octave 4
	note D#, 8
	note F#, 8
	note A_, 8
	note G#, 4
	note D#, 4
	note C_, 4
	octave 3
	note G#, 12
	octave 4
	note C#, 8
	note E_, 8
	note G_, 8
	note F#, 4
	note C#, 4
	octave 3
	note A#, 4
	note F#, 8
	note G#, 4
	note A_, 16
	note C#, 4
	note E_, 4
	note A_, 8
	note B_, 8
	octave 4
	note F#, 8
	note B_, 16
	note B_, 16
	note B_, 16
	dutycycle 2
	octave 3
	note E_, 16
	note E_, 8
	note F#, 16
	note F#, 8
	note G#, 8
	note E_, 4
	octave 2
	note B_, 16
	note B_, 16
	octave 3
	note B_, 4
	octave 4
	note E_, 4
	note E_, 16
	note E_, 4
	note F#, 4
	note F#, 12
	note E_, 4
	note F#, 4
	note A_, 4
	note G#, 4
	note E_, 4
	octave 3
	note B_, 16
	note B_, 8
	note B_, 12
	octave 4
	note E_, 8
	note E_, 16
	note E_, 12
	intensity 180
	note E_, 4
	note A_, 4
	note G#, 4
	note E_, 4
	octave 3
	note G_, 4
	octave 4
	note E_, 4
	note F#, 4
	octave 3
	note A_, 4
	octave 4
	note F#, 4
	note G_, 4
	octave 3
	note B_, 4
	octave 4
	note G_, 4
	note C_, 4
	note A_, 4
	octave 5
	note C_, 4
	notetype 1, 177
	forceoctave $1b
DPRouteLoop:
	note C_, 4
	note D_, 5
	note C_, 5
	note D_, 5
	note C_, 5
	note D_, 4
	note C_, 5
	note D_, 5
	note C_, 5
	note D_, 5
	loopchannel 4, DPRouteLoop
	forceoctave $1c
	notetype 4, 183
	octave 4
	note B_, 12
	intensity 177
	note B_, 4
	note A_, 4
	note G#, 4
	note E_, 4
	octave 3
	note B_, 4
	note A_, 4
	note G#, 4
	note E_, 4
	octave 2
	note B_, 4
	loopchannel 0, Music_Route206_Loop2
Music_Route206_Ch3:
	notetype $4, $27
	note __, 16
	note __, 16
	note __, 4
	octave 2
	note A_, 8
	note E_, 4
	note A_, 4
	note C#, 4
	note E_, 4
	note B_, 8
	note F#, 4
	note B_, 4
	note D#, 4
	note F#, 4
	octave 3
	note C_, 8
	octave 2
	note G_, 4
	octave 3
	note C_, 4
	octave 2
	note E_, 4
	note G_, 4
	octave 3
	note D_, 8
	octave 2
	note A_, 4
	octave 3
	note D_, 4
	octave 2
	note F#, 4
	note A_, 4
	note E_, 4
	note B_, 4
	octave 3
	note F#, 4
	note E_, 4
	octave 2
	note B_, 4
	octave 3
	note E_, 4
	octave 2
	note E_, 4
	octave 3
	note F#, 4
	note E_, 4
	octave 2
	note B_, 4
	note G_, 4
	octave 3
	note E_, 4
	octave 2
	note E_, 4
	note B_, 4
	octave 3
	note E_, 4
	octave 2
	note B_, 8
	note B_, 4
	octave 3
	note E_, 12
	octave 2
	note G#, 12
Music_Route206_Loop3:
	note B_, 12
	octave 1
	note B_, 4
	octave 2
	note F#, 4
	note A_, 4
	note B_, 12
	octave 1
	note B_, 12
	octave 2
	note E_, 12
	octave 1
	note B_, 4
	octave 2
	note E_, 4
	note G#, 4
	note B_, 12
	note E_, 12
	note A_, 12
	note C#, 4
	note E_, 4
	note A_, 4
	note B_, 12
	octave 1
	note B_, 12
	octave 2
	note E_, 12
	octave 1
	note B_, 4
	octave 2
	note E_, 4
	note A_, 4
	note G#, 12
	note E_, 12
	note D#, 12
	note C_, 4
	note D#, 4
	note F#, 4
	note G#, 12
	note F#, 4
	note D#, 4
	note C_, 4
	note C#, 12
	note E_, 4
	note G_, 4
	octave 3
	note C#, 4
	octave 2
	note A#, 12
	note F#, 4
	note C#, 4
	note F#, 4
	octave 3
	note C#, 12
	octave 2
	note E_, 12
	note A_, 12
	octave 3
	note C#, 12
	octave 2
	note B_, 16
	note B_, 8
	octave 3
	note E_, 12
	note F#, 12
	octave 2
	note C_, 16
	note C_, 4
	note C_, 4
	note D_, 16
	note D_, 4
	note D_, 4
	note E_, 16
	note E_, 16
	note E_, 4
	note E_, 12
	note A_, 12
	note A_, 12
	note B_, 12
	note B_, 12
	note E_, 12
	note E_, 12
	note G#, 12
	note G#, 12
	note A_, 4
	note A_, 4
	note E_, 4
	note A_, 4
	note A_, 4
	note E_, 4
	octave 3
	note C#, 4
	octave 2
	note A_, 4
	note E_, 4
	note C#, 4
	note E_, 4
	note A_, 4
	note G_, 4
	note C_, 4
	note G_, 4
	note A_, 4
	note C_, 4
	note A_, 4
	note B_, 4
	note D_, 4
	note B_, 4
	octave 3
	note C_, 4
	octave 2
	note G_, 4
	octave 3
	note C_, 4
	octave 1
	note B_, 4
	note B_, 4
	octave 2
	note F#, 4
	octave 1
	note B_, 4
	note B_, 4
	octave 2
	note F#, 4
	octave 1
	note B_, 4
	note B_, 4
	octave 2
	note F#, 4
	octave 1
	note B_, 4
	note B_, 4
	octave 2
	note F#, 4
	octave 1
	note B_, 4
	octave 2
	note F#, 4
	note A_, 4
	note B_, 4
	note F#, 4
	note B_, 4
	octave 3
	note E_, 12
	octave 2
	note G#, 12
	loopchannel 0, Music_Route206_Loop3
Music_Route206_Ch4:
	notetype $4
	togglenoise 0
	note __, 16
	note __, 16
	note __, 16
	note C_, 4
	note D#, 2
	note D#, 2
	note D#, 16
	note G#, 16
	note __, 8
	note C_, 2
	note D#, 2
	note D#, 4
	note D#, 16
	note G#, 12
	note C_, 4
	note D#, 2
	note D#, 2
	note D#, 4
	note G#, 12
	note C_, 4
	note D#, 2
	note D#, 2
	note D#, 4
	note G#, 12
	note C_, 4
	note D#, 4
	note D#, 4
	note G#, 16
	note __, 16
Music_Route206_Loop4:
	note __, 16
	note __, 16
	note __, 16
	note __, 16
	note __, 16
	note __, 16
	note __, 16
	note __, 16
	note __, 16
	note __, 16
	note __, 16
	note __, 16
	note __, 16
	note __, 16
	note __, 16
	note __, 16
	note __, 16
	note __, 16
	note __, 16
	note __, 16
	note __, 16
	note __, 16
	note __, 16
	note __, 16
	note __, 4
	note G#, 8
	note D#, 4
	note C_, 2
	note D#, 2
	note D#, 2
	note D#, 2
	note D#, 2
	note D#, 2
	note G#, 8
	note D#, 4
	note C_, 2
	note D#, 2
	note D#, 2
	note D#, 2
	note D#, 2
	note D#, 2
	note G#, 8
	note D#, 4
	note C_, 2
	note D#, 2
	note D#, 2
	note D#, 2
	note D#, 2
	note D#, 2
	note C_, 2
	note D#, 2
	note D#, 2
	note D#, 2
	note D#, 2
	note D#, 2
	note C_, 4
	note D#, 2
	note D#, 2
	note D#, 2
	note D#, 2
	note G#, 8
	note D#, 4
	note C_, 2
	note D#, 2
	note D#, 2
	note D#, 2
	note D#, 2
	note D#, 2
	note G#, 8
	note D#, 4
	note C_, 2
	note D#, 2
	note D#, 2
	note D#, 2
	note D#, 2
	note D#, 2
	note G#, 8
	note D#, 4
	note C_, 2
	note D#, 2
	note D#, 2
	note D#, 2
	note D#, 2
	note D#, 2
	note C_, 2
	note D#, 2
	note D#, 2
	note D#, 2
	note D#, 2
	note D#, 2
	note G#, 4
	note D#, 2
	note D#, 2
	note D#, 2
	note D#, 2
	note C_, 4
	note D#, 4
	note D#, 4
	note C_, 4
	note D#, 4
	note D#, 4
	note C_, 4
	note D#, 4
	note D#, 4
	note C_, 4
	note D#, 4
	note D#, 4
	note G#, 4
	note D#, 4
	note D#, 4
	note G#, 4
	note D#, 4
	note D#, 4
	note G#, 4
	note D#, 4
	note D#, 4
	note G#, 4
	note D#, 4
	note D#, 4
	note G#, 4
	note D#, 4
	note D#, 4
	note C_, 4
	note D#, 4
	note D#, 4
	note C_, 4
	note D#, 4
	note D#, 4
	note C_, 4
	note D#, 4
	note D#, 4
	note C_, 12
	note G#, 16
	note __, 16
	loopchannel 0, Music_Route206_Loop4
