Music_SinnohTrainerBattle:
	dbw $80, Music_SinnohTrainerBattle_Ch1
	dbw $01, Music_SinnohTrainerBattle_Ch2
	dbw $02, Music_SinnohTrainerBattle_Ch3

Music_SinnohTrainerBattle_Ch1:
	ftempo $68
	volume $77
	notetype $C, 178
	dutycycle $3
	tone $0002
	vibrato $12, $15
	octave 4
	note C_, 1
	octave 3
	note B_, 1
	note A#, 1
	note A_, 1
	note A#, 1
	note A_, 1
	note G#, 1
	note G_, 1
	note G#, 1
	note G_, 1
	note F#, 1
	note F_, 1
	note F#, 1
	note F_, 1
	note E_, 1
	note D#, 1
	note E_, 1
	note D#, 1
	note D_, 1
	note C#, 1
	note D_, 1
	note C#, 1
	note C_, 1
	octave 2
	note B_, 1
	octave 3
	note C_, 1
	octave 2
	note B_, 1
	note A#, 1
	note A_, 1
	note A#, 1
	note A_, 1
	note G#, 1
	note G_, 1
	octave 3
	note C_, 6
	note C_, 6
	note C_, 4
	note C_, 8
	note C_, 2
	intensity 183
	note C#, 6
	intensity 178
	note C_, 6
	note C_, 6
	note C_, 4
	note C_, 8
	note C_, 2
	intensity 183
	note C#, 6
	intensity 178
	note G_, 6
	note G_, 6
	note G_, 4
	note G_, 8
	note G_, 2
	intensity 183
	note G#, 6
	intensity 178
	note G_, 6
	note G_, 6
	note G_, 4
	note G_, 8
	note G_, 2
	intensity 183
	note G#, 6
Music_SinnohTrainerBattle_Loop1:
	intensity 180
	octave 2
	note G_, 6
	octave 3
	note C_, 6
	note G_, 4
	note G_, 4
	note F_, 4
	note E_, 4
	note C_, 2
	note D_, 2
	note C_, 3
	intensity 177
	note D_, 1
	intensity 183
	note E_, 8
	intensity 177
	note D_, 3
	note E_, 1
	intensity 180
	note F_, 4
	note G#, 4
	note G_, 4
	note F_, 4
	octave 2
	note G_, 6
	octave 3
	note C_, 6
	note G_, 4
	note G_, 4
	note F_, 4
	note E_, 4
	note C_, 2
	note D_, 2
	note C_, 3
	intensity 177
	note D_, 1
	intensity 183
	note E_, 8
	intensity 177
	note G_, 3
	note A_, 1
	intensity 180
	note A#, 8
	note A_, 4
	note A#, 4
	intensity 177
	octave 2
	note G_, 3
	note E_, 1
	intensity 180
	note E_, 4
	intensity 177
	octave 3
	note C_, 3
	octave 2
	note G_, 1
	intensity 180
	note G_, 4
	intensity 177
	octave 3
	note E_, 3
	note C_, 1
	intensity 183
	note C_, 12
	intensity 177
	octave 2
	note A#, 3
	note F_, 1
	intensity 180
	note F_, 4
	intensity 177
	octave 3
	note D_, 3
	octave 2
	note A#, 1
	intensity 180
	note A#, 4
	intensity 177
	octave 3
	note F_, 3
	note D_, 1
	intensity 183
	note D_, 12
	note G_, 8
	intensity 177
	note E_, 3
	note F_, 1
	intensity 180
	note E_, 4
	octave 4
	note C_, 8
	octave 3
	note A_, 2
	note G_, 2
	note F_, 2
	note G_, 2
	note A_, 2
	note B_, 2
	octave 4
	note C_, 2
	note D_, 2
	note C_, 2
	octave 3
	note B_, 2
	note A_, 2
	note G_, 2
	note F_, 2
	note E_, 2
	note D_, 2
	note E_, 2
	note F_, 2
	note G_, 2
	note A_, 2
	note B_, 2
	intensity 177
	octave 2
	note A#, 2
	note A#, 2
	note A#, 8
	note A#, 3
	octave 3
	note C#, 1
	intensity 180
	note D_, 4
	intensity 178
	note F_, 1
	note A_, 1
	note A#, 1
	octave 4
	note C_, 1
	note D_, 1
	note C_, 1
	octave 3
	note A#, 1
	note A_, 1
	note A#, 1
	note A_, 1
	note G_, 1
	note F_, 1
	intensity 177
	note C_, 2
	note C_, 2
	note C_, 8
	note C_, 3
	note D_, 1
	intensity 180
	note E_, 4
	intensity 178
	note G_, 1
	note B_, 1
	octave 4
	note C_, 1
	note D_, 1
	note E_, 1
	note D_, 1
	note C_, 1
	octave 3
	note B_, 1
	octave 4
	note C_, 1
	octave 3
	note B_, 1
	note A_, 1
	note G_, 1
	intensity 177
	note C#, 2
	note C#, 2
	note C#, 8
	note C#, 3
	note D#, 1
	intensity 180
	note F_, 4
	intensity 178
	note G#, 1
	octave 4
	note C_, 1
	note C#, 1
	note D#, 1
	note F_, 1
	note D#, 1
	note C#, 1
	note C_, 1
	note C#, 1
	note C_, 1
	octave 3
	note A#, 1
	note G#, 1
	intensity 177
	note D#, 2
	note D#, 2
	note D#, 8
	note D#, 3
	note F_, 1
	intensity 180
	note G_, 4
	intensity 178
	note A#, 1
	octave 4
	note D_, 1
	note D#, 1
	note F_, 1
	note G_, 1
	note F_, 1
	note D#, 1
	note D_, 1
	note D#, 1
	note D_, 1
	note C_, 1
	octave 3
	note A#, 1
	intensity 180
	octave 4
	note C_, 16
	note __, 8
	notetype $4, 180
	octave 3
	note A#, 8
	octave 4
	note C_, 8
	octave 3
	note A#, 8
	notetype $C, 180
	note A_, 16
	note F_, 16
	note C_, 16
	note __, 16
	note C#, 16
	note __, 16
	octave 2
	note A#, 16
	note __, 16
	octave 3
	note C#, 16
	note __, 16
	note C_, 16
	note __, 16
	note C#, 16
	note __, 16
	note D#, 16
	note __, 16
	note F#, 16
	note __, 16
	note F_, 6
	note F#, 4
	note F_, 2
	note D#, 2
	note F#, 2
	note F_, 6
	note F#, 4
	note F_, 2
	note D#, 2
	note F#, 2
	note F_, 6
	note F#, 4
	note F_, 2
	note D#, 2
	note F#, 2
	note F_, 6
	note F#, 4
	note F_, 2
	note D#, 2
	note F#, 2
	note F_, 6
	note F#, 4
	note F_, 2
	note D#, 2
	note F#, 2
	note F_, 6
	note F#, 4
	note F_, 2
	note D#, 2
	note F#, 2
	note F_, 6
	note F#, 4
	note F_, 2
	note D#, 2
	note F#, 2
	note F_, 6
	note F#, 4
	note F_, 2
	note D#, 2
	note F#, 2
	note F_, 6
	note F#, 4
	note F_, 2
	note D#, 2
	note F#, 2
	note F_, 6
	note F#, 4
	note F_, 2
	note D#, 2
	note F#, 2
	note F_, 6
	note F#, 4
	note F_, 2
	note D#, 2
	note F#, 2
	note F_, 2
	note F#, 2
	note G#, 2
	note A#, 2
	octave 4
	note C_, 2
	octave 3
	note F_, 2
	note F#, 2
	note D#, 2
	intensity 177
	octave 2
	note C_, 2
	note F_, 2
	note G#, 2
	note G_, 2
	note C_, 2
	note G_, 2
	note C#, 2
	note F_, 2
	note C_, 2
	note F_, 2
	note G#, 2
	note G_, 2
	note C_, 2
	note G_, 2
	note C#, 2
	note F_, 2
	note C_, 2
	note F_, 2
	note G#, 2
	note G_, 2
	note C_, 2
	note G_, 2
	note C#, 2
	note F_, 2
	note C_, 2
	note F_, 2
	note G#, 2
	note G_, 2
	note C_, 2
	note G_, 2
	note C#, 2
	note F_, 2
	intensity 178
	octave 3
	note C_, 2
	note F_, 2
	note G#, 2
	note G_, 2
	note C_, 2
	note G_, 2
	note C#, 2
	note F_, 2
	note C_, 2
	note F_, 2
	note G#, 2
	note G_, 2
	note C_, 2
	note G_, 2
	note C#, 2
	note F_, 2
	note C_, 2
	note F_, 2
	note G#, 2
	note G_, 2
	note C_, 2
	note G_, 2
	note C#, 2
	note F_, 2
	note C_, 2
	note F_, 2
	note G#, 2
	note G_, 2
	note C_, 2
	note G_, 2
	note C#, 2
	note F_, 2
	loopchannel 0, Music_SinnohTrainerBattle_Loop1
Music_SinnohTrainerBattle_Ch2:
	notetype $C, 194
	dutycycle $3
	vibrato $8, $36
	tone $0001
	octave 5
	note C_, 2
	octave 4
	note B_, 1
	octave 5
	note C_, 1
	note C#, 4
	note C#, 2
	note C_, 1
	note C#, 1
	note D_, 4
	note D#, 2
	note D_, 1
	note D#, 1
	note E_, 4
	note E_, 2
	note D#, 1
	note E_, 1
	note F_, 4
	octave 4
	note C_, 6
	note C_, 6
	note C_, 4
	note C_, 4
	octave 3
	note G_, 4
	octave 4
	note C_, 2
	note C#, 2
	octave 3
	note A#, 2
	octave 4
	note C#, 2
	note C_, 6
	note C_, 6
	note C_, 4
	note C_, 4
	octave 3
	note G_, 4
	octave 4
	note C_, 2
	note C#, 2
	note D#, 2
	note E_, 2
	note G_, 6
	note G_, 6
	note G_, 4
	note G_, 4
	note C_, 4
	note G_, 2
	note G#, 2
	note F_, 2
	note G#, 2
	note G_, 6
	note G_, 6
	note G_, 4
	note G_, 4
	note C_, 4
	note G_, 2
	note G#, 2
	note A#, 2
	note B_, 2
Music_SinnohTrainerBattle_Loop2:
	intensity 199
	octave 3
	note C_, 6
	note G_, 6
	octave 4
	note C_, 4
	octave 3
	note A#, 4
	note G#, 4
	note G_, 4
	note F_, 4
	intensity 193
	note E_, 3
	note F_, 1
	intensity 199
	note G_, 8
	octave 4
	note D_, 4
	octave 3
	note A#, 16
	note C_, 6
	note G_, 6
	octave 4
	note C_, 4
	octave 3
	note A#, 4
	note G#, 4
	note G_, 4
	note F_, 4
	intensity 193
	note E_, 3
	note F_, 1
	intensity 199
	note G_, 8
	intensity 193
	octave 4
	note C_, 3
	note D_, 1
	intensity 199
	note E_, 8
	note D_, 8
	intensity 193
	octave 3
	note E_, 3
	note C_, 1
	intensity 196
	note C_, 4
	intensity 193
	note G_, 3
	note E_, 1
	intensity 196
	note E_, 4
	intensity 193
	octave 4
	note C_, 3
	octave 3
	note G_, 1
	intensity 196
	note G_, 12
	intensity 193
	note F_, 3
	note D_, 1
	intensity 196
	note D_, 4
	intensity 193
	note A#, 3
	note F_, 1
	intensity 196
	note F_, 4
	intensity 193
	octave 4
	note D_, 3
	octave 3
	note A#, 1
	intensity 199
	note A#, 8
	note B_, 4
	octave 4
	note C_, 12
	octave 3
	note G_, 4
	octave 4
	note E_, 12
	note C_, 4
	note G_, 12
	note F_, 3
	note D#, 1
	note E_, 16
	note G_, 8
	intensity 194
	note F_, 2
	note E_, 2
	note D_, 2
	note C_, 2
	intensity 199
	note D_, 16
	note E_, 8
	intensity 194
	note G_, 2
	note F_, 2
	note E_, 2
	note D_, 2
	intensity 199
	note E_, 16
	notetype $4, 194
	note F_, 8
	note E_, 8
	note F_, 8
	notetype $C, 194
	note G#, 2
	note G_, 2
	note F_, 2
	note D#, 2
	note G#, 2
	note G_, 2
	note F_, 2
	note D#, 2
	note F_, 2
	note G_, 2
	note G#, 2
	note A#, 2
	note G_, 2
	note G#, 2
	note A#, 2
	octave 5
	note C_, 2
	octave 4
	note A#, 2
	note G#, 2
	note G_, 2
	note F_, 2
	note G_, 4
	note F_, 2
	note G_, 2
	note A#, 2
	note G#, 2
	note G_, 2
	note A#, 2
	intensity 199
	note A_, 16
	note A#, 16
	octave 5
	note C_, 12
	octave 4
	note A#, 4
	note A_, 16
	octave 3
	note G_, 16
	note __, 16
	note G#, 16
	note __, 16
	note F_, 16
	note __, 16
	note G#, 16
	note __, 16
	note G_, 16
	note __, 16
	note G#, 16
	note __, 16
	note A#, 16
	note __, 16
	octave 4
	note C#, 16
	note __, 16
	intensity 196
	note C_, 6
	note C#, 4
	note C_, 2
	octave 3
	note A#, 2
	octave 4
	note C#, 2
	note C_, 6
	note C#, 4
	note C_, 2
	octave 3
	note A#, 2
	octave 4
	note C#, 2
	note C_, 6
	note C#, 4
	note C_, 2
	octave 3
	note A#, 2
	octave 4
	note C#, 2
	note C_, 6
	note C#, 4
	note C_, 2
	octave 3
	note A#, 2
	octave 4
	note C#, 2
	note C_, 6
	note C#, 4
	note C_, 2
	octave 3
	note A#, 2
	octave 4
	note C#, 2
	note C_, 6
	note C#, 4
	note C_, 2
	octave 3
	note A#, 2
	octave 4
	note C#, 2
	note C_, 6
	note C#, 4
	note C_, 2
	octave 3
	note A#, 2
	octave 4
	note C#, 2
	note C_, 6
	note C#, 4
	note C_, 2
	octave 3
	note A#, 2
	octave 4
	note C#, 2
	note C_, 6
	note C#, 4
	note C_, 2
	octave 3
	note A#, 2
	octave 4
	note C#, 2
	note C_, 6
	note C#, 4
	note C_, 2
	octave 3
	note A#, 2
	octave 4
	note C#, 2
	note C_, 6
	note C#, 4
	note C_, 2
	octave 3
	note A#, 2
	octave 4
	note C#, 2
	note C_, 2
	note C#, 2
	note D#, 2
	note F_, 2
	note F#, 2
	note C_, 2
	note C#, 2
	octave 3
	note A#, 2
	intensity 194
	octave 4
	note C_, 2
	note F_, 2
	note G#, 2
	note G_, 2
	note C_, 2
	note G_, 2
	note C#, 2
	note F_, 2
	note C_, 2
	note F_, 2
	note G#, 2
	note G_, 2
	note C_, 2
	note G_, 2
	note C#, 2
	note F_, 2
	note C_, 2
	note F_, 2
	note G#, 2
	note G_, 2
	note C_, 2
	note G_, 2
	note C#, 2
	note F_, 2
	note C_, 2
	note F_, 2
	note G#, 2
	note G_, 2
	note C_, 2
	note G_, 2
	note C#, 2
	note F_, 2
	note C_, 2
	note F_, 2
	note G#, 2
	note G_, 2
	note C_, 2
	note G_, 2
	note C#, 2
	note F_, 2
	note C_, 2
	note F_, 2
	note G#, 2
	note G_, 2
	note C_, 2
	note G_, 2
	note C#, 2
	note F_, 2
	note C_, 2
	note F_, 2
	note G#, 2
	note G_, 2
	note C_, 2
	note G_, 2
	note C#, 2
	note F_, 2
	note C_, 2
	note F_, 2
	note G#, 2
	note G_, 2
	note C_, 2
	note G_, 2
	note C#, 2
	note F_, 2
	loopchannel 0, Music_SinnohTrainerBattle_Loop2
Music_SinnohTrainerBattle_Ch3:
	notetype $c, $19
	note __, 16
	octave 3
	note C_, 1
	note C#, 1
	note D_, 1
	note D#, 1
	note E_, 1
	note F_, 1
	note F#, 1
	note G_, 1
	note F_, 1
	note F#, 1
	note G_, 1
	note G#, 1
	note A_, 1
	note A#, 1
	note B_, 1
	octave 4
	note C_, 1
	octave 3
	note C_, 2
	octave 2
	note G_, 2
	octave 3
	note C_, 2
	note F_, 2
	note F#, 2
	note C_, 2
	note F_, 2
	note D#, 2
	note C_, 2
	octave 2
	note G_, 2
	octave 3
	note D#, 2
	note F_, 2
	octave 2
	note A#, 2
	octave 3
	note C#, 2
	octave 2
	note A#, 2
	octave 3
	note C#, 2
	note C_, 2
	octave 2
	note G_, 2
	octave 3
	note C_, 2
	note F_, 2
	note F#, 2
	note C_, 2
	note F_, 2
	note D#, 2
	note C_, 2
	octave 2
	note G_, 2
	octave 3
	note D#, 2
	note F_, 2
	octave 2
	note A#, 2
	octave 3
	note C#, 2
	note D#, 2
	note C#, 2
	note C_, 2
	octave 2
	note G_, 2
	octave 3
	note C_, 2
	note F_, 2
	note F#, 2
	note C_, 2
	note F_, 2
	note D#, 2
	note C_, 2
	octave 2
	note G_, 2
	octave 3
	note D#, 2
	note F_, 2
	octave 2
	note A#, 2
	octave 3
	note C#, 2
	octave 2
	note A#, 2
	octave 3
	note C#, 2
	note C_, 2
	octave 2
	note G_, 2
	octave 3
	note C_, 2
	note F_, 2
	note F#, 2
	note C_, 2
	note F_, 2
	note D#, 2
	note C_, 2
	note F_, 2
	note F#, 2
	note G_, 2
	note A#, 2
	note F_, 2
	note C#, 2
	octave 2
	note A#, 2
Music_SinnohTrainerBattle_Loop3:
	octave 3
	note C_, 2
	note G_, 2
	note C_, 2
	note G_, 2
	note C_, 2
	note G_, 2
	note G_, 2
	note C_, 2
	note F_, 2
	note A#, 2
	note F_, 2
	note A#, 2
	note F_, 2
	note A#, 2
	note A#, 2
	note F_, 2
	note C_, 2
	note G_, 2
	note C_, 2
	note G_, 2
	note C_, 2
	note G_, 2
	note C_, 2
	note G_, 2
	note D_, 2
	note F_, 2
	note D_, 2
	note F_, 2
	note D_, 2
	note F_, 2
	note D_, 2
	note F_, 2
	note C_, 2
	note G_, 2
	note C_, 2
	note G_, 2
	note C_, 2
	note G_, 2
	note F_, 2
	note G_, 2
	note F_, 2
	note A#, 2
	note F_, 2
	note A#, 2
	note F_, 2
	note A#, 2
	note F_, 2
	note A#, 2
	note C_, 2
	note G_, 2
	note C_, 2
	note G_, 2
	note C_, 2
	note G_, 2
	note C_, 2
	note G_, 2
	note C_, 2
	octave 4
	note C_, 2
	octave 3
	note C_, 2
	octave 4
	note C_, 2
	octave 3
	note C_, 2
	octave 4
	note C_, 2
	octave 3
	note C_, 2
	octave 4
	note C_, 2
	octave 3
	note C_, 2
	note G_, 2
	note C_, 2
	note G_, 2
	note C_, 2
	note G_, 2
	note C_, 2
	note G_, 2
	note C_, 2
	note G_, 2
	note C_, 2
	note G_, 2
	note C_, 2
	note G_, 2
	note C_, 2
	note G_, 2
	octave 2
	note A#, 2
	octave 3
	note F_, 2
	octave 2
	note A#, 2
	octave 3
	note F_, 2
	octave 2
	note A#, 2
	octave 3
	note F_, 2
	octave 2
	note A#, 2
	octave 3
	note F_, 2
	octave 2
	note A#, 2
	octave 3
	note F_, 2
	octave 2
	note A#, 2
	octave 3
	note F_, 2
	octave 2
	note A#, 2
	octave 3
	note F_, 2
	octave 2
	note A#, 2
	octave 3
	note F_, 2
	note C_, 2
	note G_, 2
	note C_, 2
	note G_, 2
	note C_, 2
	note G_, 2
	note C_, 2
	note G_, 2
	note C_, 2
	note G_, 2
	note C_, 2
	note G_, 2
	note C_, 2
	note G_, 2
	note C_, 2
	note G_, 2
	note C_, 2
	note G_, 2
	note C_, 2
	note G_, 2
	note C_, 2
	note G_, 2
	note C_, 2
	note G_, 2
	note C_, 2
	note G_, 2
	note F_, 2
	note E_, 2
	note F_, 2
	note E_, 2
	note F_, 2
	note G_, 2
	octave 2
	note A#, 2
	octave 3
	note F_, 2
	octave 2
	note A#, 2
	octave 3
	note F_, 2
	octave 2
	note A#, 2
	octave 3
	note F_, 2
	octave 2
	note A#, 2
	octave 3
	note F_, 2
	octave 2
	note A#, 2
	octave 3
	note F_, 2
	octave 2
	note A#, 2
	octave 3
	note F_, 2
	octave 2
	note A#, 2
	octave 3
	note F_, 2
	octave 2
	note A#, 2
	octave 3
	note F_, 2
	note C_, 2
	note G_, 2
	note C_, 2
	note G_, 2
	note C_, 2
	note G_, 2
	note C_, 2
	note G_, 2
	note C_, 2
	note G_, 2
	note C_, 2
	note G_, 2
	note C_, 2
	note G_, 2
	note C_, 2
	note G_, 2
	note C#, 2
	note G#, 2
	note C#, 2
	note G#, 2
	note C#, 2
	note G#, 2
	note C#, 2
	note G#, 2
	note C#, 2
	note G#, 2
	note C#, 2
	note G#, 2
	note C#, 2
	note G#, 2
	note C#, 2
	note G#, 2
	note D#, 2
	note A#, 2
	note D#, 2
	note A#, 2
	note D#, 2
	note A#, 2
	note D#, 2
	note A#, 2
	note D#, 2
	note A#, 2
	note D#, 2
	note A#, 2
	note D#, 2
	note A#, 2
	note D#, 2
	note A#, 2
	note A_, 4
	note F_, 4
	note A_, 4
	note F_, 4
	note A_, 4
	note F_, 4
	note A_, 4
	note F_, 4
	note C_, 2
	note F_, 2
	note A_, 2
	note F_, 2
	note A_, 2
	octave 4
	note C_, 2
	note E_, 2
	note F_, 2
	note F_, 2
	octave 3
	note A_, 2
	octave 4
	note C_, 2
	octave 3
	note F_, 2
	note A_, 2
	note C_, 2
	note F_, 2
	note C_, 2
	note C_, 2
	note G_, 2
	note C_, 2
	note G_, 2
	note C_, 2
	note G_, 2
	note C_, 2
	note G_, 2
	note C_, 2
	note G_, 2
	note C_, 2
	note G_, 2
	note C_, 2
	note G_, 2
	note C_, 2
	note G_, 2
	note C#, 2
	note G#, 2
	note C#, 2
	note G#, 2
	note C#, 2
	note G#, 2
	note C#, 2
	note G#, 2
	note C#, 2
	note G#, 2
	note C#, 2
	note G#, 2
	note C#, 2
	note G#, 2
	note C#, 2
	note G#, 2
	octave 2
	note A#, 2
	octave 3
	note F_, 2
	octave 2
	note A#, 2
	octave 3
	note F_, 2
	octave 2
	note A#, 2
	octave 3
	note F_, 2
	octave 2
	note A#, 2
	octave 3
	note F_, 2
	octave 2
	note A#, 2
	octave 3
	note F_, 2
	octave 2
	note A#, 2
	octave 3
	note F_, 2
	octave 2
	note A#, 2
	octave 3
	note F_, 2
	octave 2
	note A#, 2
	octave 3
	note F_, 2
	note C#, 2
	note G#, 2
	note C#, 2
	note G#, 2
	note C#, 2
	note G#, 2
	note C#, 2
	note G#, 2
	note C#, 2
	note G#, 2
	note C#, 2
	note G#, 2
	note C#, 2
	note G#, 2
	note C#, 2
	note G#, 2
	note C_, 2
	note G_, 2
	note C_, 2
	note G_, 2
	note C_, 2
	note G_, 2
	note C_, 2
	note G_, 2
	note C_, 2
	note G_, 2
	note C_, 2
	note G_, 2
	note C_, 2
	note G_, 2
	note C_, 2
	note G_, 2
	note C#, 2
	note G#, 2
	note C#, 2
	note G#, 2
	note C#, 2
	note G#, 2
	note C#, 2
	note G#, 2
	note C#, 2
	note G#, 2
	note C#, 2
	note G#, 2
	note C#, 2
	note G#, 2
	note C#, 2
	note G#, 2
	note D#, 2
	note A#, 2
	note D#, 2
	note A#, 2
	note D#, 2
	note A#, 2
	note D#, 2
	note A#, 2
	note D#, 2
	note A#, 2
	note D#, 2
	note A#, 2
	note D#, 2
	note A#, 2
	note D#, 2
	note A#, 2
	note F#, 2
	octave 4
	note C#, 2
	octave 3
	note F#, 2
	octave 4
	note C#, 2
	octave 3
	note F#, 2
	octave 4
	note C#, 2
	octave 3
	note F#, 2
	octave 4
	note C#, 2
	octave 3
	note F#, 2
	octave 4
	note C#, 2
	octave 3
	note F#, 2
	octave 4
	note C#, 2
	octave 3
	note F#, 2
	octave 4
	note C#, 2
	octave 3
	note F#, 2
	octave 4
	note C#, 2
	octave 3
	note F_, 2
	octave 4
	note C_, 2
	note C_, 2
	octave 3
	note F_, 2
	octave 4
	note C_, 2
	note C_, 2
	octave 3
	note F_, 2
	octave 4
	note C_, 2
	octave 3
	note F#, 2
	octave 4
	note C#, 2
	note C#, 2
	octave 3
	note F#, 2
	octave 4
	note C#, 2
	note C#, 2
	octave 3
	note F#, 2
	octave 4
	note C#, 2
	octave 3
	note G#, 2
	octave 4
	note D#, 2
	note D#, 2
	octave 3
	note G#, 2
	octave 4
	note D#, 2
	note D#, 2
	octave 3
	note G#, 2
	octave 4
	note D#, 2
	octave 3
	note A#, 2
	octave 4
	note F_, 2
	note F_, 2
	octave 3
	note A#, 2
	octave 4
	note F_, 2
	note F_, 2
	octave 3
	note A#, 2
	octave 4
	note F_, 2
	octave 3
	note F_, 2
	octave 4
	note C_, 2
	note C_, 2
	octave 3
	note F_, 2
	octave 4
	note C_, 2
	note C_, 2
	octave 3
	note F_, 2
	octave 4
	note C_, 2
	octave 3
	note F#, 2
	octave 4
	note C#, 2
	note C#, 2
	octave 3
	note F#, 2
	octave 4
	note C#, 2
	note C#, 2
	octave 3
	note F#, 2
	octave 4
	note C#, 2
	octave 3
	note G#, 2
	octave 4
	note D#, 2
	note D#, 2
	octave 3
	note G#, 2
	octave 4
	note D#, 2
	note D#, 2
	octave 3
	note G#, 2
	octave 4
	note D#, 2
	octave 3
	note A#, 2
	octave 4
	note F_, 2
	note F_, 2
	octave 3
	note A#, 2
	octave 4
	note F#, 2
	note F_, 2
	note D#, 2
	note F#, 2
	octave 3
	note C_, 2
	octave 2
	note G_, 2
	octave 3
	note C_, 2
	note F_, 2
	note F#, 2
	note C_, 2
	note F_, 2
	note D#, 2
	note C_, 2
	octave 2
	note G_, 2
	octave 3
	note D#, 2
	note F_, 2
	octave 2
	note A#, 2
	octave 3
	note C#, 2
	octave 2
	note A#, 2
	octave 3
	note C#, 2
	note C_, 2
	octave 2
	note G_, 2
	octave 3
	note C_, 2
	note F_, 2
	note F#, 2
	note C_, 2
	note F_, 2
	note D#, 2
	note C_, 2
	note F_, 2
	note F#, 2
	note G_, 2
	note A#, 2
	note F_, 2
	note C#, 2
	octave 2
	note A#, 2
	octave 3
	note C_, 2
	octave 2
	note G_, 2
	octave 3
	note C_, 2
	note F_, 2
	note F#, 2
	note C_, 2
	note F_, 2
	note D#, 2
	note C_, 2
	octave 2
	note G_, 2
	octave 3
	note D#, 2
	note F_, 2
	octave 2
	note A#, 2
	octave 3
	note C#, 2
	octave 2
	note A#, 2
	octave 3
	note C#, 2
	note C_, 2
	octave 2
	note G_, 2
	octave 3
	note C_, 2
	note F_, 2
	note F#, 2
	note C_, 2
	note F_, 2
	note D#, 2
	note C_, 2
	note F_, 2
	note F#, 2
	note G_, 2
	note A#, 2
	note F_, 2
	note C#, 2
	octave 2
	note A#, 2
	octave 3
	note C_, 2
	octave 2
	note G_, 2
	octave 3
	note C_, 2
	note F_, 2
	note F#, 2
	note C_, 2
	note F_, 2
	note D#, 2
	note C_, 2
	octave 2
	note G_, 2
	octave 3
	note D#, 2
	note F_, 2
	octave 2
	note A#, 2
	octave 3
	note C#, 2
	octave 2
	note A#, 2
	octave 3
	note C#, 2
	note C_, 2
	octave 2
	note G_, 2
	octave 3
	note C_, 2
	note F_, 2
	note F#, 2
	note C_, 2
	note F_, 2
	note D#, 2
	note C_, 2
	note F_, 2
	note F#, 2
	note G_, 2
	note A#, 2
	note F_, 2
	note C#, 2
	octave 2
	note A#, 2
	loopchannel 0, Music_SinnohTrainerBattle_Loop3
